Coordinates
version=1
nRows=11
nColumns=40
inDegrees=yes

Units are S.I. units (second, meters, Newtons, ...)
Angles are in degrees.

endheader
time	pelvis_tilt	pelvis_list	pelvis_rotation	pelvis_tx	pelvis_ty	pelvis_tz	hip_flexion_r	hip_adduction_r	hip_rotation_r	knee_angle_r	knee_angle_r_beta	ankle_angle_r	subtalar_angle_r	mtp_angle_r	hip_flexion_l	hip_adduction_l	hip_rotation_l	knee_angle_l	knee_angle_l_beta	ankle_angle_l	subtalar_angle_l	mtp_angle_l	lumbar_extension	lumbar_bending	lumbar_rotation	arm_flex_r	arm_add_r	arm_rot_r	elbow_flex_r	pro_sup_r	wrist_flex_r	wrist_dev_r	arm_flex_l	arm_add_l	arm_rot_l	elbow_flex_l	pro_sup_l	wrist_flex_l	wrist_dev_l
     14.62000000	     -2.30295229	     -4.99179198	      2.23894254	      1.03475326	      0.93105057	      0.50900289	     10.71638429	      3.32934357	    -14.27177424	     18.70456503	     18.70456503	     12.27345507	      0.95261486	     -1.53186589	     26.15887405	    -12.25573290	      0.15445479	     62.81881489	     62.81881489	     11.32354373	    -18.51752011	     12.90580046	    -10.20543102	      5.39946405	      0.87322082	     14.34679622	    -20.98451826	     -5.49952154	     66.72456089	     42.96379030	      0.00000000	      0.00000000	      0.27661953	     -8.76675288	     -2.26140469	     28.61883723	     43.46936043	      0.00000000	      0.00000000
     14.63385714	     -2.55733978	     -4.82307761	      2.64781282	      1.03293118	      0.93131230	      0.50897218	     10.34897529	      3.25221638	    -14.37952958	     18.05599332	     18.05599332	     12.39903114	      0.78197427	     -1.48015339	     27.50845871	    -12.01902448	      0.18769869	     60.95856791	     60.95856791	     11.59570547	    -18.68305886	     13.08336285	    -10.16243709	      5.27995752	      1.18307392	     15.73547172	    -21.42943403	     -5.81056134	     67.45808654	     42.97175847	      0.00000000	      0.00000000	     -0.23289543	     -8.37467036	     -2.21272912	     28.50758128	     43.47035275	      0.00000000	      0.00000000
     14.64771429	     -2.66321951	     -4.76460858	      3.11683293	      1.03123357	      0.93188402	      0.50899246	      9.66899767	      3.36310013	    -14.46986691	     17.09805402	     17.09805402	     12.31060482	      0.60368522	     -1.44807220	     28.52074722	    -11.78872942	      0.36314615	     58.72689492	     58.72689492	     11.80527819	    -18.81626935	     13.46576960	    -10.29764628	      5.27210969	      1.09914441	     17.15160364	    -21.39336259	     -6.15867744	     68.61758061	     42.97950356	      0.00000000	      0.00000000	     -0.92982135	     -8.12171441	     -2.19627898	     28.39798049	     43.48814872	      0.00000000	      0.00000000
     14.66157143	     -2.86815296	     -4.61989990	      3.53707540	      1.02948080	      0.93211361	      0.50878498	      9.18432597	      3.32947400	    -14.58033326	     16.31695203	     16.31695203	     12.33018477	      0.40399437	     -1.54965070	     29.49558337	    -11.41941482	      0.44065596	     56.26711782	     56.26711782	     12.00151893	    -18.82443612	     13.79465557	    -10.30043850	      5.19130438	      1.22065483	     18.59806053	    -21.62194313	     -6.54575675	     69.59664473	     42.99230193	      0.00000000	      0.00000000	     -1.53287444	     -7.79201862	     -2.19151969	     28.39789697	     43.50508249	      0.00000000	      0.00000000
     14.67542857	     -3.08238741	     -4.49426800	      3.93737637	      1.02767211	      0.93226680	      0.50852085	      8.77417029	      3.29303813	    -14.68878502	     15.64177050	     15.64177050	     12.32707635	      0.25298293	     -1.67897017	     30.32936734	    -10.95106797	      0.64058153	     53.51682861	     53.51682861	     12.02356175	    -18.78578352	     14.08840149	    -10.32221457	      5.12167857	      1.36295716	     19.96631996	    -21.82572290	     -6.90859355	     70.49119438	     43.00286275	      0.00000000	      0.00000000	     -2.07311133	     -7.49492989	     -2.19150007	     28.40273534	     43.51941644	      0.00000000	      0.00000000
     14.68928571	     -3.37409860	     -4.51704486	      4.34958763	      1.02579585	      0.93205952	      0.50815387	      8.64430181	      3.34298768	    -14.94047227	     15.31972647	     15.31972647	     12.43883454	      0.08494035	     -1.76546384	     31.18643189	    -10.58859805	      0.90499658	     50.60478602	     50.60478602	     12.14175629	    -18.38275882	     14.33953183	    -10.22191948	      5.25949354	      1.67880362	     21.19729420	    -22.21715832	     -7.18010984	     71.06212128	     43.00481948	      0.00000000	      0.00000000	     -2.41631818	     -7.18464867	     -2.16954641	     28.36386360	     43.51721154	      0.00000000	      0.00000000
     14.70314286	     -3.53706352	     -4.17103224	      4.72645171	      1.02409937	      0.93241237	      0.50749275	      8.03433765	      3.07678423	    -14.99463952	     14.39151391	     14.39151391	     12.31514746	      0.09139133	     -1.91886496	     31.49870157	     -9.68560615	      1.19435414	     47.13370275	     47.13370275	     11.78834474	    -18.26672984	     14.42071056	    -10.35815312	      4.91011173	      1.49613986	     22.62771050	    -22.04436545	     -7.58753365	     72.28825994	     43.00419938	      0.00000000	      0.00000000	     -2.94712621	     -6.98500104	     -2.19175004	     28.31533081	     43.53489836	      0.00000000	      0.00000000
     14.71700000	     -3.68703618	     -4.12853547	      5.14347047	      1.02243574	      0.93228875	      0.50680727	      7.47653523	      3.12737629	    -15.21369160	     13.48075130	     13.48075130	     11.53995052	     -0.18909387	     -4.17988244	     31.67861934	     -9.16789050	      1.47102459	     43.33286815	     43.33286815	     10.12243528	    -17.92518633	     10.43860272	    -10.49027448	      4.97612845	      1.59279032	     23.59456794	    -21.81796502	     -8.80945636	     74.07920815	     43.25120758	      0.00000000	      0.00000000	     -3.42020553	     -6.70764652	     -2.78358697	     28.79592285	     43.88711317	      0.00000000	      0.00000000
     14.73085714	     -3.95244598	     -3.99861050	      5.47701401	      1.02064662	      0.93205843	      0.50597058	      7.28209560	      2.97808881	    -15.40837734	     13.11766284	     13.11766284	     11.64234706	     -0.16649184	     -4.23278537	     31.98487196	     -8.47990191	      1.85802149	     39.74982784	     39.74982784	     10.03014198	    -16.83821871	     10.59020101	    -10.45690863	      4.89702953	      1.70637377	     24.76739462	    -21.86517978	     -8.97669219	     74.79001772	     43.25729428	      0.00000000	      0.00000000	     -3.62046587	     -6.54223134	     -2.77637471	     28.68791471	     43.90297600	      0.00000000	      0.00000000
     14.74471429	     -4.20443376	     -3.91767438	      5.81483103	      1.01894567	      0.93172179	      0.50515910	      7.07026945	      2.88388515	    -15.68163601	     12.75082636	     12.75082636	     11.74188869	     -0.07514083	     -4.32252716	     32.18906810	     -7.88452703	      2.18687659	     36.16706596	     36.16706596	      9.92988212	    -15.37766252	     10.55465384	    -10.43715790	      4.81748955	      1.74432706	     25.93114322	    -21.81920631	     -9.17371914	     75.58933595	     43.25931548	      0.00000000	      0.00000000	     -3.76668272	     -6.37530456	     -2.78145723	     28.60002546	     43.91961911	      0.00000000	      0.00000000
     14.75857143	     -4.41357181	     -3.88430513	      6.10937197	      1.01739689	      0.93135679	      0.50431264	      6.81377174	      2.83504172	    -15.98341603	     12.40296959	     12.40296959	     11.84634960	      0.09630714	     -4.44986413	     32.26064760	     -7.39583964	      2.40779733	     32.66984334	     32.66984334	      9.85340019	    -13.64836872	     10.42429214	    -10.45495012	      4.77980925	      1.76801578	     27.01474623	    -21.64949293	     -9.36793924	     76.42552754	     43.25933975	      0.00000000	      0.00000000	     -3.86468998	     -6.26762765	     -2.81112102	     28.52332677	     43.94073740	      0.00000000	      0.00000000
